@startuml
'https://plantuml.com/class-diagram'


class Jugador {
    - nombre
    + responder(respuesta : String):
}





class Panel {

}

class GeneradorDePreguntas{

    + method():
}

class AlgoJuego{

}

interface Pregunta {
    +obtenerRespuestaCorrecta(): Array<Respuesta>
    + puntuar(respuesta : Respuesta)
}

interface ModficadorDePuntaje {
    + method():
}


interface Bonificacador {
    + method():
}

interface Penalizacion {
    + method():
}

class VerdaderoFalsoClasico {

}

class VerdaderoFalsoPenalidad {

}

class MultipleChoiceClasico {

}

class MultipleChoiceParcial {

}

class MultipleChoicePenalidad {

}

class OrderedChoice {

}

class GroupChoice {

}

interface PenalizacionPregunta {

}

class Respuesta{
    - respuesta
    + esCorrecta(): Boolean
    + method():
}


ModficadorDePuntaje <|.. Bonificacador
ModficadorDePuntaje <|.. Penalizacion


AlgoJuego *-- Jugador
AlgoJuego *-- GeneradorDePreguntas
Panel --> Pregunta
Pregunta *- "*"Respuesta

Pregunta <|.. VerdaderoFalsoClasico
Pregunta <|.. VerdaderoFalsoPenalidad
Pregunta <|.. MultipleChoiceClasico
Pregunta <|.. MultipleChoiceParcial
Pregunta <|.. MultipleChoicePenalidad
Pregunta <|.. OrderedChoice
Pregunta <|.. GroupChoice

Jugador "2..5 "--"1 " Panel
Jugador .> ModficadorDePuntaje

VerdaderoFalsoPenalidad *.. PenalizacionPregunta
MultipleChoicePenalidad *.. PenalizacionPregunta

@enduml